<?xml version="1.0" encoding="UTF-8" standalone="no"?>
<!-- Created with Inkscape (http://www.inkscape.org/) -->

<svg
   width="732"
   height="508"
   viewBox="0 0 732 508"
   version="1.1"
   id="svg5"
   sodipodi:docname="Error.svg"
   inkscape:version="1.2.2 (732a01da63, 2022-12-09)"
   xmlns:inkscape="http://www.inkscape.org/namespaces/inkscape"
   xmlns:sodipodi="http://sodipodi.sourceforge.net/DTD/sodipodi-0.dtd"
   xmlns="http://www.w3.org/2000/svg"
   xmlns:svg="http://www.w3.org/2000/svg">
  <g
     aria-label="500"
     transform="translate(-14.531903,-46.822431)"
     id="text13505"
     style="font-size:106.667px;line-height:1.25;white-space:pre;shape-inside:url(#rect13507);display:inline;fill:#502e3a"
     inkscape:label="500-txt">
    <path
       d="m 347.56305,312.64538 q 0,5.46877 -1.92709,9.7917 -1.875,4.27085 -5.3646,7.23961 -3.43751,2.91667 -8.33336,4.47918 -4.84376,1.5625 -10.78128,1.5625 -3.12501,0 -5.93752,-0.41666 -2.81251,-0.36459 -5.0521,-0.93751 -2.23959,-0.625 -3.69793,-1.19792 -1.40625,-0.625 -1.875,-0.98958 -0.41667,-0.41667 -0.625,-0.88542 -0.20834,-0.46876 -0.36459,-1.09376 -0.10417,-0.67708 -0.15625,-1.66667 -0.0521,-0.98959 -0.0521,-2.34376 0,-1.45833 0.10416,-2.44792 0.10417,-1.04167 0.3125,-1.66667 0.26042,-0.625 0.57292,-0.88542 0.3125,-0.26042 0.72917,-0.26042 0.52084,0 1.56251,0.625 1.09375,0.57292 2.81251,1.30209 1.77083,0.72917 4.27084,1.35417 2.50001,0.57292 5.9896,0.57292 3.02085,0 5.46877,-0.625 2.50001,-0.625 4.21876,-1.97918 1.71876,-1.40625 2.65626,-3.48959 0.93751,-2.08334 0.93751,-5.00002 0,-2.5 -0.78126,-4.42709 -0.78125,-1.97918 -2.44792,-3.33335 -1.66667,-1.35417 -4.32293,-2.03125 -2.65626,-0.67709 -6.45835,-0.67709 -3.02085,0 -5.52086,0.3125 -2.44792,0.3125 -4.63543,0.3125 -1.51042,0 -2.1875,-0.72917 -0.625,-0.78125 -0.625,-2.8125 v -29.27093 q 0,-2.08334 0.78125,-2.96876 0.83333,-0.9375 2.60417,-0.9375 h 31.92719 q 0.46875,0 0.88541,0.3125 0.41667,0.3125 0.67709,0.98959 0.3125,0.67708 0.41667,1.82292 0.15625,1.09375 0.15625,2.65626 0,3.12501 -0.57292,4.53126 -0.52083,1.40626 -1.5625,1.40626 h -23.95841 v 14.42712 q 1.82292,-0.20833 3.59376,-0.26041 1.82292,-0.0521 3.80209,-0.0521 5.46877,0 9.68753,1.30209 4.27085,1.25 7.13544,3.75001 2.91668,2.44793 4.4271,6.14585 1.51042,3.64585 1.51042,8.48961 z"
       style="font-weight:bold;font-family:Calibri;-inkscape-font-specification:'Calibri Bold';text-align:center;text-anchor:middle"
       id="path986" />
    <path
       d="m 403.60489,300.56201 q 0,8.07295 -1.30209,14.58338 -1.30208,6.51044 -4.27084,11.09379 -2.91668,4.58334 -7.65628,7.03127 -4.68751,2.44792 -11.51045,2.44792 -6.9271,0 -11.45837,-2.34375 -4.53126,-2.39584 -7.18752,-6.82294 -2.65626,-4.47918 -3.75001,-10.88545 -1.04167,-6.45836 -1.04167,-14.58338 0,-8.02086 1.30209,-14.5313 1.35417,-6.56252 4.27084,-11.14587 2.96876,-4.58334 7.65628,-7.03127 4.73959,-2.44792 11.51045,-2.44792 6.9271,0 11.45837,2.39584 4.58335,2.34376 7.2396,6.82294 2.65626,4.42709 3.69793,10.88545 1.04167,6.40627 1.04167,14.53129 z m -13.80212,0.67709 q 0,-4.79168 -0.26042,-8.43753 -0.26042,-3.69793 -0.83334,-6.40627 -0.52083,-2.70834 -1.35417,-4.58335 -0.78125,-1.875 -1.92709,-2.96875 -1.14583,-1.14584 -2.60417,-1.61459 -1.45834,-0.46875 -3.22918,-0.46875 -3.07293,0 -5.10418,1.51042 -1.97918,1.45834 -3.1771,4.42709 -1.14583,2.96876 -1.61458,7.39586 -0.46876,4.4271 -0.46876,10.31253 0,7.18753 0.57292,11.92712 0.57292,4.68752 1.77084,7.50003 1.25001,2.76042 3.1771,3.90626 1.92708,1.09375 4.63543,1.09375 2.03125,0 3.59376,-0.625 1.5625,-0.67708 2.70834,-1.97917 1.19792,-1.30209 1.97917,-3.28126 0.78125,-1.97918 1.25001,-4.58335 0.52083,-2.60417 0.67708,-5.88544 0.20834,-3.28126 0.20834,-7.2396 z"
       style="font-weight:bold;font-family:Calibri;-inkscape-font-specification:'Calibri Bold';text-align:center;text-anchor:middle"
       id="path988" />
    <path
       d="m 457.66756,300.56201 q 0,8.07295 -1.30209,14.58338 -1.30208,6.51044 -4.27084,11.09379 -2.91668,4.58334 -7.65628,7.03127 -4.68751,2.44792 -11.51045,2.44792 -6.92711,0 -11.45837,-2.34375 -4.53126,-2.39584 -7.18752,-6.82294 -2.65626,-4.47918 -3.75001,-10.88545 -1.04167,-6.45836 -1.04167,-14.58338 0,-8.02086 1.30208,-14.5313 1.35417,-6.56252 4.27085,-11.14587 2.96876,-4.58334 7.65627,-7.03127 4.7396,-2.44792 11.51046,-2.44792 6.9271,0 11.45837,2.39584 4.58334,2.34376 7.2396,6.82294 2.65626,4.42709 3.69793,10.88545 1.04167,6.40627 1.04167,14.53129 z m -13.80213,0.67709 q 0,-4.79168 -0.26041,-8.43753 -0.26042,-3.69793 -0.83334,-6.40627 -0.52083,-2.70834 -1.35417,-4.58335 -0.78125,-1.875 -1.92709,-2.96875 -1.14584,-1.14584 -2.60418,-1.61459 -1.45833,-0.46875 -3.22917,-0.46875 -3.07293,0 -5.10418,1.51042 -1.97918,1.45834 -3.1771,4.42709 -1.14583,2.96876 -1.61459,7.39586 -0.46875,4.4271 -0.46875,10.31253 0,7.18753 0.57292,11.92712 0.57292,4.68752 1.77084,7.50003 1.25,2.76042 3.17709,3.90626 1.92709,1.09375 4.63543,1.09375 2.03126,0 3.59377,-0.625 1.5625,-0.67708 2.70834,-1.97917 1.19792,-1.30209 1.97917,-3.28126 0.78125,-1.97918 1.25,-4.58335 0.52084,-2.60417 0.67709,-5.88544 0.20833,-3.28126 0.20833,-7.2396 z"
       style="font-weight:bold;font-family:Calibri;-inkscape-font-specification:'Calibri Bold';text-align:center;text-anchor:middle"
       id="path990" />
  </g>
  <sodipodi:namedview
     id="namedview7"
     pagecolor="#505050"
     bordercolor="#ffffff"
     borderopacity="1"
     inkscape:showpageshadow="0"
     inkscape:pageopacity="0"
     inkscape:pagecheckerboard="1"
     inkscape:deskcolor="#505050"
     inkscape:document-units="px"
     showgrid="false"
     inkscape:zoom="0.96478081"
     inkscape:cx="225.43981"
     inkscape:cy="349.30214"
     inkscape:window-width="1920"
     inkscape:window-height="1017"
     inkscape:window-x="-8"
     inkscape:window-y="-8"
     inkscape:window-maximized="1"
     inkscape:current-layer="svg5"
     inkscape:lockguides="false" />
  <defs
     id="defs2">
    <rect
       x="117.26714"
       y="237.46596"
       width="524.44528"
       height="233.4688"
       id="rect13507" />
    <rect
       x="818"
       y="493.32819"
       width="906"
       height="338.87308"
       id="rect558" />
    <inkscape:perspective
       sodipodi:type="inkscape:persp3d"
       inkscape:vp_x="0 : -32 : 1"
       inkscape:vp_y="0 : 1000 : 0"
       inkscape:vp_z="1920 : -32 : 1"
       inkscape:persp3d-origin="960 : -212 : 1"
       id="perspective589" />
    <rect
       x="117.26714"
       y="237.46596"
       width="474.19899"
       height="109.93794"
       id="rect15782" />
  </defs>
  <path
     id="dish1"
     style="display:inline;fill:#502e3a;fill-opacity:1;stroke:none;stroke-width:5.1016;stroke-linecap:round;stroke-linejoin:round;stroke-dasharray:none;stroke-opacity:1;stop-color:#000000"
     inkscape:label="dish1"
     d="M 364.78906 34.314453 A 229.57213 229.57208 1.3585526 0 0 133.35156 234.20117 C 142.1452 239.91934 152.60129 246.3742 158.61328 248.80078 C 164.5189 251.18442 169.58355 253.00414 175.30859 254.23828 C 180.23499 157.70375 258.65309 81.274646 354.70898 78.318359 C 355.33782 76.320857 355.97739 74.32904 356.52539 72.306641 C 358.70598 64.259061 362.0095 48.248244 364.78906 34.314453 z M 351.1875 88.714844 C 261.76553 93.398899 189.57706 165.22348 185.45117 255.71289 C 188.75157 255.99499 192.36289 256.14908 196.50977 256.15039 C 196.50977 256.15039 199.70129 260.9576 207.07812 264.13867 C 218.15436 259.65887 237.4082 244.64258 237.4082 244.64258 C 243.31671 249.25239 252.07422 259.67188 252.07422 259.67188 L 273.05859 258.78906 L 257.93359 236.98242 L 292.95898 216.75391 L 276.50391 189.01953 L 339.36328 188.52344 L 342.06445 164.3125 L 351.76953 171.04492 L 354.16016 108.35938 L 344.66992 106.04492 C 346.81309 100.26196 349.0694 94.510169 351.1875 88.714844 z " />
  <path
     id="dish2"
     style="display:inline;fill:#502e3a;fill-opacity:1;stroke:none;stroke-width:5.1016;stroke-linecap:round;stroke-linejoin:round;stroke-dasharray:none;stroke-opacity:1;stop-color:#000000"
     inkscape:label="dish2"
     d="M 124.35156 255.46484 A 229.57208 229.57213 87.065507 0 0 123.86133 279.69141 A 229.57208 229.57213 87.065507 0 0 229.94531 461.03906 C 234.62065 454.13518 240.31071 446.64865 244.38086 442.0332 C 247.44598 436.76003 250.66846 430.7965 254.24805 424.86523 C 204.97735 393.7451 171.03198 340.01429 167.82422 277.4375 C 167.73612 275.71862 167.73221 274.01674 167.69141 272.30664 C 161.89004 271.50453 156.7042 270.06572 150.63672 268.13086 C 144.45993 266.16114 133.54857 260.5087 124.35156 255.46484 z M 228.89844 258.08789 C 228.89844 258.08789 210.82311 274.50246 200.11328 279.79883 C 192.51902 277.1789 188.97656 272.625 188.97656 272.625 C 184.84122 272.93401 181.22631 273.04983 177.91406 273.01562 C 177.95236 274.31649 177.94868 275.60778 178.01562 276.91406 C 181.05291 336.16495 213.13 386.95983 259.73828 416.33594 C 261.63143 413.60851 263.62529 410.96713 265.74805 408.49219 C 265.74805 408.49219 272.46095 365.67322 279.18359 354.14062 C 279.18359 354.14062 305.70565 333.57436 317.41992 321.63086 L 309.91211 308.73438 L 268.56836 303.75195 L 285.49023 276.71289 L 279.37305 267.89453 L 244.64844 271.97656 C 244.64844 271.97656 235.13545 262.24248 228.89844 258.08789 z " />
  <path
     id="dish3"
     style="display:inline;fill:#502e3a;fill-opacity:1;stroke:none;stroke-width:5.1016;stroke-linecap:round;stroke-linejoin:round;stroke-dasharray:none;stroke-opacity:1;stop-color:#000000"
     inkscape:label="dish3"
     d="M 412.42383 306.65039 L 406.11914 338.2793 L 340.88086 314.74609 L 327.7793 339.42578 L 322.24805 329.92383 C 309.98585 339.39212 296.65039 348.73438 296.65039 348.73438 C 289.34616 359.90769 280.44922 402.32812 280.44922 402.32812 C 278.20254 404.69113 276.07715 407.22853 274.04688 409.85547 C 302.57334 429.94646 337.3424 441.7793 374.91602 441.7793 C 408.96542 441.7793 440.7163 432.06316 467.60547 415.29492 C 452.88273 395.54483 437.81806 376.46794 428.37891 367.75977 C 423.63612 341.48379 418.89086 321.69218 414.64648 306.82227 L 412.42383 306.65039 z M 268.13086 418.0957 C 264.25266 423.8355 260.72339 429.62345 257.39258 434.73242 C 253.09148 439.13344 247.0285 446.31718 242.00586 452.97266 A 229.57213 229.57208 0 0 0 374.91602 496.00391 A 229.57213 229.57208 0 0 0 499.32617 459.29688 C 492.502 449.5466 483.43043 436.80048 473.64648 423.47461 C 445.04106 441.50628 411.20229 451.98242 374.91602 451.98242 C 335.16012 451.98242 298.34089 439.4146 268.13086 418.0957 z " />
  <path
     id="dish4"
     style="display:inline;fill:#502e3a;fill-opacity:1;stroke:none;stroke-width:5.1016;stroke-linecap:round;stroke-linejoin:round;stroke-dasharray:none;stroke-opacity:1;stop-color:#000000"
     inkscape:label="dish4"
     d="M 544.12891 103.9707 C 536.28161 113.93715 526.38393 126.04725 515.80078 138.20898 C 544.54558 169.72557 562.6669 211.21068 564.14453 257.15039 C 566.27047 323.24647 533.46683 382.38335 482.41797 416.9043 C 492.62525 429.90874 502.10419 442.355 509.23828 451.88086 A 229.57208 229.57213 88.157749 0 0 608.14453 255.73633 A 229.57208 229.57213 88.157749 0 0 544.12891 103.9707 z M 509.02734 145.82031 C 497.29294 158.89949 485.07633 171.54003 473.8125 180.94141 C 472.83596 198.56062 464.4668 205.59961 464.4668 205.59961 C 460.84293 206.84585 457.28746 208.33722 453.78125 209.93164 L 467.0957 215.24219 L 451.64062 232.02148 L 491.29102 269.18555 L 443.07227 288.35547 L 461.01562 310.40039 L 421.30273 307.33594 C 425.6246 321.42728 430.4229 339.47726 435.38477 362.67383 C 445.09898 371.07406 460.76714 389.65531 476.11719 408.92188 C 524.7321 376.38916 555.96785 320.29893 553.94727 257.47852 C 552.56166 214.39958 535.7553 175.49576 509.02734 145.82031 z " />
  <path
     id="dish5"
     style="display:inline;fill:#502e3a;fill-opacity:1;stroke:none;stroke-width:5.1016;stroke-linecap:round;stroke-linejoin:round;stroke-dasharray:none;stroke-opacity:1;stop-color:#000000"
     inkscape:label="dish5"
     d="M 379.97852 11.996094 A 229.57213 229.57208 1.7430252 0 0 378.76758 12.044922 C 375.89455 25.959746 372.48258 41.947702 370.24805 49.980469 C 369.68649 51.999146 369.0348 53.987231 368.39258 55.980469 C 371.78938 55.898729 375.20163 55.891514 378.63867 55.996094 C 435.07749 57.713578 484.85121 84.544722 517.66602 125.40039 C 528.99279 113.92085 539.60285 102.43169 548.06055 92.972656 A 229.57213 229.57208 1.7430252 0 0 379.97852 11.996094 z M 371.53516 66.144531 C 369.28125 66.175437 367.03616 66.249419 364.79883 66.351562 C 362.6419 72.132545 360.34794 77.870224 358.16602 83.638672 L 367.64062 86.017578 L 363.46094 179.1582 L 379.02539 189.95703 L 435.36914 172.9707 L 427.95117 199.63086 L 432.79102 201.56055 C 441.94288 196.65324 451.92522 192.25039 462.19922 189.42188 C 462.19922 189.42188 470.9939 182.92014 473.07031 165.39648 C 484.89453 156.72186 497.933 144.91324 510.45703 132.59961 C 479.47639 93.512233 432.12975 67.832543 378.32812 66.195312 C 376.05212 66.126052 373.78906 66.113625 371.53516 66.144531 z " />
</svg>
