<svg width="30" height="30" version="1.1" viewBox="0 0 30 30" xmlns="http://www.w3.org/2000/svg">
 <path id="circle-cross" d="m15 0c-8.2667 0-15 6.7333-15 15 0 8.2667 6.7333 15 15 15 8.2667 0 15-6.7333 15-15 0-8.2667-6.7333-15-15-15zm0 2.9961c6.6454 0 12.004 5.3585 12.004 12.004 0 6.6454-5.3585 12.004-12.004 12.004-6.6454 0-12.004-5.3586-12.004-12.004 0-6.6454 5.3585-12.004 12.004-12.004zm-5.2891 5.2168a1.5 1.5 0 0 0-1.0586 0.43945 1.5 1.5 0 0 0 0 2.1172l4.2305 4.2305-4.2305 4.2305a1.5 1.5 0 0 0 0 2.1172 1.5 1.5 0 0 0 2.1172 0l4.2305-4.2305 4.2305 4.2305a1.5 1.5 0 0 0 2.1172 0 1.5 1.5 0 0 0 0-2.1172l-4.2305-4.2305 4.2305-4.2305a1.5 1.5 0 0 0 0-2.1172 1.5 1.5 0 0 0-1.0625-0.43555 1.5 1.5 0 0 0-1.0547 0.43555l-4.2305 4.2305-4.2305-4.2305a1.5 1.5 0 0 0-1.0586-0.43945z" color="#000000" fill="#502e3a" opacity=".998" style="-inkscape-stroke:none"/>
</svg>
